<?xml version="1.0" encoding="UTF-8"?>
<svg width="42px" height="25px" viewBox="0 0 42 25" version="1.1" xmlns="http://www.w3.org/2000/svg" xmlns:xlink="http://www.w3.org/1999/xlink">
    <title>4) Misc UI/Payments/Alipay</title>
    <g id="4)-Misc-UI/Payments/Alipay" stroke="none" stroke-width="1" fill="none" fill-rule="evenodd">
        <rect id="Rectangle" fill="#1677FF" fill-rule="nonzero" x="0" y="5.68434189e-14" width="42" height="25" rx="2"></rect>
        <g id="Group-2" transform="translate(3.000000, 7.000000)" fill="#FFFFFF">
            <path d="M8.75887613,6.66087009 C10.2907795,7.17248338 10.6382719,7.2 10.6382719,7.2 L10.6382719,1.69950453 C10.6382719,0.760676737 9.87618127,0 8.9347432,0 L1.70418127,0 C0.76252568,0 0,0.760676737 0,1.69950453 L0,8.90885801 C0,9.84714199 0.76252568,10.6080363 1.70418127,10.6080363 L8.9347432,10.6080363 C9.87618127,10.6080363 10.6382719,9.84714199 10.6382719,8.90885801 L10.6382719,8.83935952 C10.6382719,8.83935952 7.87127492,7.6890997 6.4738006,7.01912991 C5.53682175,8.16895468 4.32783082,8.86676737 3.07283384,8.86676737 C0.950138973,8.86676737 0.229377644,7.01456193 1.23444109,5.79523867 C1.45359517,5.52942598 1.82632024,5.2756858 2.40493051,5.13353474 C3.30982477,4.91187915 4.75047734,5.27187915 6.1003142,5.71595166 C6.34285196,5.26992145 6.54732326,4.77875529 6.69948036,4.25593958 L2.53925076,4.25593958 L2.53925076,3.83546828 L4.68435045,3.83546828 L4.68435045,3.08240483 L2.08625982,3.08240483 L2.08625982,2.6620423 L4.68435045,2.6620423 L4.68435045,1.58748036 C4.68435045,1.58748036 4.68435045,1.40639275 4.86826586,1.40639275 L5.91672508,1.40639275 L5.91672508,2.6620423 L8.48545015,2.6620423 L8.48545015,3.08240483 L5.91672508,3.08240483 L5.91672508,3.83546828 L8.01353474,3.83546828 C7.81308761,4.65520242 7.50801208,5.409571 7.12571601,6.07181873 C7.76207855,6.30130514 8.33329305,6.51871903 8.75887613,6.66087009" id="1)-Fill-348"></path>
            <path d="M2.5857136,5.76247976 C2.32000967,5.78890876 1.82101269,5.90626224 1.54813051,6.14651601 C0.730136556,6.85770634 1.21945378,8.15762175 2.87458369,8.15762175 C3.83646888,8.15762175 4.79802779,7.54431662 5.55304894,6.56231057 C4.47892205,6.03960363 3.56891601,5.66557341 2.5857136,5.76247976" id="1)-Fill-349"></path>
            <path d="M30.3036036,2.64832749 L34.3553982,2.64832749 L34.3553982,3.4504423 L35.8023589,3.4504423 L35.8023589,2.64832749 L35.8023589,2.50019456 C35.8021414,2.49791057 35.8019239,2.49682296 35.8019239,2.49432145 C35.8019239,2.28082296 35.6347577,2.10789245 35.4272411,2.10441208 L33.0852834,2.10441208 L33.0852834,1.35667795 L31.5707819,1.35667795 L31.5707819,2.10441208 L28.8568604,2.10441208 L28.8568604,2.37642417 L28.8568604,2.64832749 L28.8568604,3.4504423 L30.3036036,3.4504423 L30.3036036,2.64832749 Z" id="1)-Fill-350"></path>
            <polygon id="1)-Fill-351" points="21.5376906 1.42577402 20.0541861 4.93430574 21.1922647 4.93430574 21.1922647 9.10965317 22.4370381 9.10965317 22.4370381 3.57152628 21.9862224 3.57152628 22.92331 1.42577402"></polygon>
            <path d="M35.9686441,8.91836375 L35.5140218,7.38254502 C35.4837861,7.28465982 35.3950369,7.21363867 35.2896471,7.21352991 L34.0848979,7.21352991 L34.4340218,8.39304653 L33.0175142,8.39304653 L33.0175142,6.1085148 L35.799194,6.1085148 L35.799194,5.5645994 L33.0175142,5.5645994 L33.0175142,4.48927613 L35.799194,4.48927613 L35.799194,3.94536073 L33.0175142,3.94536073 L31.6385293,3.94536073 L28.8568495,3.94536073 L28.8568495,4.48927613 L31.6385293,4.48927613 L31.6385293,5.5645994 L28.8568495,5.5645994 L28.8568495,6.1085148 L31.6385293,6.1085148 L31.6385293,8.39304653 L28.8568495,8.39304653 L28.8568495,8.93696193 L35.9686441,8.93696193 L35.9626622,8.91836375 L35.9686441,8.91836375 Z" id="1)-Fill-352"></path>
            <path d="M24.7205583,4.30205438 C24.6733559,4.20547432 24.5767758,4.13902115 24.4645341,4.13825982 L23.3871444,4.13825982 L24.2263468,6.78126888 L25.5012471,6.78126888 L24.7205583,4.30205438 Z" id="1)-Fill-353"></path>
            <path d="M27.4478792,1.48955166 L26.1544894,1.48955166 L26.1544894,2.84091118 L22.9668036,2.84091118 L22.9668036,3.38482659 L26.1544894,3.38482659 L26.1544894,8.24363021 C26.143287,8.35467553 26.0555166,8.44124955 25.9457764,8.44723142 L25.2885317,8.44723142 L25.2885317,9.01039758 L26.9647613,9.01039758 C27.2300302,8.9990864 27.4418973,8.77927976 27.4478792,8.50596254 L27.4478792,8.44723142 L27.4478792,3.38482659 L27.9731964,3.38482659 L27.9731964,2.84091118 L27.4478792,2.84091118 L27.4478792,1.48955166 Z" id="1)-Fill-354"></path>
            <path d="M19.3774405,3.95165801 L16.8926792,3.95165801 L16.8926792,3.06133776 L19.7737668,3.06133776 L19.7737668,2.50687251 L16.8926792,2.50687251 L16.8926792,1.37847372 L15.6086429,1.37847372 L15.6084254,1.3788 C15.467797,1.3788 15.3539239,1.49647976 15.3539239,1.64211118 L15.3539239,1.64243746 L15.3539239,2.50687251 L12.4932834,2.50687251 L12.4932834,3.06133776 L15.3539239,3.06133776 L15.3539239,3.95165801 L12.9396399,3.95165801 L12.9396399,4.50579698 L17.7487396,4.50579698 C17.7487396,4.50579698 17.4822743,5.54631662 16.1629994,6.6646006 C14.9813076,5.76992991 14.5861776,5.05721692 14.5861776,5.05721692 L13.2961595,5.05721692 C13.8179964,5.96178489 14.5598574,6.68635287 15.3582743,7.26093897 C14.6246792,7.73774864 13.6733438,8.19748278 12.4430356,8.56509607 L12.4430356,9.22930151 C12.4430356,9.22930151 14.3409208,8.87104169 16.1753982,7.79028036 C18.0125946,8.86255831 19.857948,9.22930151 19.857948,9.22930151 L19.857948,8.60076979 C18.6770175,8.17072749 17.7414526,7.69805076 17.006661,7.24190574 C18.0708906,6.45349486 19.003519,5.38328338 19.3774405,3.95165801" id="1)-Fill-355"></path>
        </g>
    </g>
</svg>