<?xml version="1.0" encoding="UTF-8"?>
<svg width="42px" height="25px" viewBox="0 0 42 25" version="1.1" xmlns="http://www.w3.org/2000/svg" xmlns:xlink="http://www.w3.org/1999/xlink">
    <title>4) Misc UI/Payments/American Express</title>
    <defs>
        <rect id="path-1" x="0" y="0" width="42" height="25" rx="2"></rect>
    </defs>
    <g id="4)-Misc-UI/Payments/American-Express" stroke="none" stroke-width="1" fill="none" fill-rule="evenodd">
        <mask id="mask-2" fill="white">
            <use xlink:href="#path-1"></use>
        </mask>
        <use id="Rectangle" fill="#2671B9" xlink:href="#path-1"></use>
        <rect id="Rectangle" fill="#FFFFFF" mask="url(#mask-2)" x="0" y="3" width="42" height="19"></rect>
        <path d="M42.3,17.8532727 C42.3,18.930199 41.6309185,19.4321871 40.433238,19.4321871 L38.1443573,19.4321871 L38.1443573,18.3552608 L40.433238,18.3552608 C40.6446328,18.3552608 40.8206834,18.3196976 40.8915957,18.2481153 C40.9616133,18.176077 41.0320782,18.0682476 41.0320782,17.924855 C41.0320782,17.7810065 40.9620607,17.6376139 40.8915957,17.5660315 C40.8206834,17.4939933 40.6802009,17.4584301 40.468806,17.4584301 C39.3771585,17.422183 38.0034274,17.4939933 38.0034274,15.9148509 C38.0034274,15.196748 38.461114,14.4070628 39.6939152,14.4070628 L42.0534845,14.4070628 L42.0534845,15.4839891 L39.869742,15.4839891 C39.6587946,15.4839891 39.517641,15.4839891 39.4120554,15.5555715 C39.3062461,15.6634009 39.2360048,15.7710023 39.2360048,15.950642 C39.2360048,16.1300538 39.3418141,16.2378832 39.4825203,16.3099214 C39.6236739,16.3454846 39.7646038,16.3815037 39.9406544,16.3815037 L40.5743916,16.3815037 C41.2434731,16.3815037 41.6664865,16.5248964 41.9483463,16.7763463 C42.1590701,17.0275684 42.3,17.3510566 42.3,17.8532727 L42.3,17.8532727 Z M37.3338985,16.7763463 C37.0520387,16.5248964 36.6292489,16.3815037 35.9601674,16.3815037 L35.3264302,16.3815037 C35.1503797,16.3815037 35.0092261,16.3452567 34.8685199,16.3099214 C34.7273663,16.2378832 34.6222281,16.1300538 34.6222281,15.950642 C34.6222281,15.7710023 34.657125,15.6634009 34.7980549,15.5555715 C34.9038642,15.4839891 35.0445704,15.4839891 35.2559653,15.4839891 L37.4397078,15.4839891 L37.4397078,14.4070628 L35.0799148,14.4070628 C33.8117693,14.4070628 33.3889796,15.196748 33.3889796,15.9148509 C33.3889796,17.4937653 34.7629343,17.422183 35.8548055,17.4584301 C36.065753,17.4584301 36.2069066,17.4939933 36.2771479,17.5660315 C36.3473891,17.6376139 36.4183015,17.7810065 36.4183015,17.924855 C36.4183015,18.0682476 36.3476128,18.176077 36.2771479,18.2481153 C36.1715623,18.3196976 36.0308561,18.3552608 35.8194612,18.3552608 L33.5299095,18.3552608 L33.5299095,19.4321871 L35.8194612,19.4321871 C37.0164706,19.4321871 37.6859996,18.9299711 37.6859996,17.8532727 C37.6859996,17.3510566 37.5452933,17.0275684 37.3338985,16.7763463 L37.3338985,16.7763463 Z M32.8254836,18.3917359 L30.043572,18.3917359 L30.043572,17.3866198 L32.7554661,17.3866198 L32.7554661,16.3819597 L30.043572,16.3819597 L30.043572,15.448426 L32.8254836,15.448426 L32.8254836,14.4077467 L28.8812358,14.4077467 L28.8812358,19.4324151 L32.8254836,19.4324151 L32.8254836,18.3917359 Z M27.6130903,14.6589687 C27.2254212,14.4435379 26.7677346,14.4075187 26.1688943,14.4075187 L23.4572239,14.4075187 L23.4572239,19.4321871 L24.654457,19.4321871 L24.654457,17.6018227 L25.9226025,17.6018227 C26.3449448,17.6018227 26.591684,17.6378418 26.7679583,17.8172536 C26.9793531,18.0682476 26.9793531,18.4991093 26.9793531,18.8223696 L26.9793531,19.4321871 L28.1412419,19.4321871 L28.1412419,18.4630902 C28.1412419,17.9964373 28.106345,17.7810065 27.9654151,17.5300124 C27.8596058,17.3861639 27.648882,17.2067521 27.3670222,17.0991507 C27.6835553,16.9917772 28.212378,16.5609155 28.212378,15.7710023 C28.2119306,15.1972039 28.0005357,14.8739437 27.6130903,14.6589687 L27.6130903,14.6589687 Z M20.9211567,14.4075187 L17.152512,14.4075187 L15.6380747,16.0586994 L14.1938787,14.4075187 L9.43917205,14.4075187 L9.43917205,19.4321871 L14.1236375,19.4321871 L15.6382984,17.7810065 L17.0822707,19.4321871 L19.3718225,19.4321871 L19.3718225,17.7456712 L20.8509154,17.7456712 C21.8723217,17.7456712 22.8939517,17.4584301 22.8939517,16.0586994 C22.893728,14.6947599 21.8369774,14.4075187 20.9211567,14.4075187 L20.9211567,14.4075187 Z M26.6619253,16.4895611 C26.4860984,16.5609155 26.3098242,16.5609155 26.0984294,16.5609155 L24.654457,16.5971626 L24.654457,15.448198 L26.0984294,15.448198 C26.3098242,15.448198 26.5212191,15.448198 26.6619253,15.5557994 C26.8030789,15.6280657 26.9084408,15.7712303 26.9084408,15.9866612 C26.9084408,16.20232 26.8030789,16.3817317 26.6619253,16.4895611 L26.6619253,16.4895611 Z M20.9211567,16.7405552 L19.3713751,16.7405552 L19.3713751,15.448198 L20.9211567,15.448198 C21.3439464,15.448198 21.6255825,15.6280657 21.6255825,16.0586994 C21.6255825,16.4895611 21.3437227,16.7405552 20.9211567,16.7405552 Z M16.3776212,16.9197389 L18.2090389,14.9459819 L18.2090389,19.0017813 L16.3776212,16.9197389 Z M13.5247972,18.3917359 L10.6012845,18.3917359 L10.6012845,17.3866198 L13.207593,17.3866198 L13.207593,16.3819597 L10.6012845,16.3819597 L10.6012845,15.448426 L13.5599178,15.448426 L14.8631839,16.9199669 L13.5247972,18.3917359 Z M39.0243863,10.7821251 L37.3338985,10.7821251 L35.1150354,7.01333885 L35.1150354,10.7821251 L32.7203454,10.7821251 L32.2619877,9.6694076 L29.7968328,9.6694076 L29.3389224,10.7821251 L27.9651914,10.7821251 C27.4016955,10.7821251 26.6619253,10.6385045 26.2398067,10.2076428 C25.8521376,9.77700904 25.6407427,9.20275472 25.6407427,8.30546808 C25.6407427,7.55157405 25.7463283,6.86971827 26.2744799,6.33148307 C26.626581,5.93641251 27.2607655,5.75722874 28.0705533,5.75722874 L29.1975451,5.75722874 L29.1975451,6.83415508 L28.0705533,6.83415508 C27.6482109,6.83415508 27.4014718,6.90596537 27.1549563,7.12139623 C26.9435614,7.33682709 26.8379758,7.73144172 26.8379758,8.26990489 C26.8379758,8.80814009 26.9435614,9.20298268 27.1549563,9.45443267 C27.3310068,9.63361644 27.6482109,9.70542673 27.9649677,9.70542673 L28.493343,9.70542673 L30.1838308,5.75745671 L31.9450072,5.75745671 L33.9173549,10.4951119 L33.9173549,5.75722874 L35.7489963,5.75722874 L37.8269295,9.23877384 L37.8269295,5.75722874 L39.0241626,5.75722874 L39.0241626,10.7821251 L39.0243863,10.7821251 Z M25.0421261,5.75722874 L23.844893,5.75722874 L23.844893,10.7821251 L25.0421261,10.7821251 L25.0421261,5.75722874 Z M22.5411795,5.9726596 C22.1537341,5.75722874 21.7313918,5.75722874 21.1325515,5.75722874 L18.4204338,5.75722874 L18.4204338,10.7821251 L19.5825462,10.7821251 L19.5825462,8.9515327 L20.850468,8.9515327 C21.2732577,8.9515327 21.5551176,8.98732385 21.7311681,9.16696356 C21.942563,9.41818558 21.9069949,9.8490473 21.9069949,10.1360605 L21.9069949,10.7821251 L23.1042281,10.7821251 L23.1042281,9.77700904 C23.1042281,9.34637529 23.0691074,9.13094443 22.8932806,8.87972241 C22.7874713,8.73610183 22.5760764,8.55646213 22.3297847,8.44908865 C22.6463177,8.30546808 23.1751406,7.91062548 23.1751406,7.12094029 C23.1753641,6.54691393 22.9286249,6.22365366 22.5411795,5.9726596 L22.5411795,5.9726596 Z M17.575078,9.74144585 L14.8278396,9.74144585 L14.8278396,8.7363298 L17.5397337,8.7363298 L17.5397337,7.69565056 L14.8278396,7.69565056 L14.8278396,6.79813595 L17.575078,6.79813595 L17.575078,5.75745671 L13.6303828,5.75745671 L13.6303828,10.7823531 L17.575078,10.7823531 L17.575078,9.74144585 Z M12.7499064,5.75722874 L10.8126794,5.75722874 L9.3687071,9.16696356 L7.81892551,5.75722874 L5.91704285,5.75722874 L5.91704285,10.4948839 L3.9095746,5.75722874 L2.14862185,5.75722874 L0.0353443261,10.7821251 L1.3032661,10.7821251 L1.76095275,9.6694076 L4.22633135,9.6694076 L4.6842417,10.7821251 L7.07937904,10.7821251 L7.07937904,6.83415508 L8.80498747,10.7821251 L9.82617005,10.7821251 L11.5522259,6.83415508 L11.5522259,10.7821251 L12.7496827,10.7821251 L12.7496827,5.75722874 L12.7499064,5.75722874 Z M31.8398691,8.59270923 L31.0294102,6.61872422 L30.2196225,8.59270923 L31.8398691,8.59270923 Z M21.6255825,7.80325201 C21.4497557,7.91108142 21.2734814,7.91108142 21.026966,7.91108142 L19.5825462,7.91108142 L19.5825462,6.79836392 L21.0267423,6.79836392 C21.2381371,6.79836392 21.4842052,6.79836392 21.6253588,6.87017421 C21.766065,6.97800363 21.8367537,7.1216242 21.8367537,7.33682709 C21.8367537,7.55202999 21.7662887,7.73121375 21.6255825,7.80325201 Z M2.18351878,8.59270923 L2.9937539,6.61872422 L3.80376532,8.59270923 L2.18351878,8.59270923 Z M42.0183639,-10 L1.45661261e-12,-10 L1.45661261e-12,8.09026519 L1.44397231,4.75234066 L4.50796747,4.75234066 L4.93075719,5.57781701 L4.93075719,4.75234066 L8.52335135,4.75234066 L9.33336277,6.54691393 L10.1082536,4.75234066 L21.5551176,4.75234066 C22.0832692,4.75234066 22.5409558,4.85994211 22.8935043,5.14695529 L22.8935043,4.75234066 L26.0279644,4.75234066 L26.0279644,5.14695529 C26.556116,4.85971414 27.2251975,4.75234066 28.000312,4.75234066 L32.5436238,4.75234066 L32.9664135,5.57781701 L32.9664135,4.75234066 L36.3124922,4.75234066 L36.8057469,5.57781701 L36.8057469,4.75234066 L40.0809132,4.75234066 L40.0809132,11.7872411 L36.7704026,11.7872411 L36.1366654,10.7105428 L36.1366654,11.7872411 L32.0156959,11.7872411 L31.5580092,10.6387325 L30.5361556,10.6387325 L30.0784689,11.7872411 L27.9300708,11.7872411 C27.084715,11.7872411 26.4505304,11.5718103 26.0284118,11.3566074 L26.0284118,11.7872411 L20.9211567,11.7872411 L20.9211567,10.1720796 C20.9211567,9.95664875 20.886036,9.92062962 20.7451061,9.92062962 L20.5690556,9.92062962 L20.5690556,11.7870132 L10.7070938,11.7870132 L10.7070938,10.8897265 L10.3549928,11.7870132 L8.27705956,11.7870132 L7.92495849,10.9255177 L7.92495849,11.7870132 L3.94469523,11.7870132 L3.52212921,10.6385045 L2.50072292,10.6385045 L2.04303627,11.7870132 L1.45661261e-12,11.7870132 L1.45661261e-12,33 L42.0183639,33 L42.0183639,20.1142709 C41.5606772,20.3297017 40.9264926,20.4373032 40.2925318,20.4373032 L37.2283129,20.4373032 L37.2283129,20.0064415 C36.8762118,20.2939106 36.2420272,20.4373032 35.6434107,20.4373032 L25.9928438,20.4373032 L25.9928438,18.8223696 C25.9928438,18.6069387 25.9579468,18.6069387 25.7814489,18.6069387 L25.6053984,18.6069387 L25.6053984,20.4373032 L22.4355939,20.4373032 L22.4355939,18.5351285 C21.9074423,18.7861225 21.3086021,18.7861225 20.7802268,18.7861225 L20.427902,18.7861225 L20.427902,20.4373032 L16.5538954,20.4373032 L15.6382984,19.3603768 L14.6168921,20.4373032 L8.38242144,20.4373032 L8.38242144,13.4026307 L14.722254,13.4026307 L15.6380747,14.4788731 L16.6243604,13.4026307 L20.886036,13.4026307 C21.3788433,13.4026307 22.1890784,13.474213 22.5411795,13.8328085 L22.5411795,13.4026307 L26.3449448,13.4026307 C26.7323902,13.4026307 27.4723841,13.474213 27.9651914,13.8328085 L27.9651914,13.4026307 L33.7061837,13.4026307 L33.7061837,13.8332644 C34.0231641,13.5460233 34.6222281,13.4028586 35.150156,13.4028586 L38.3553048,13.4028586 L38.3553048,13.8332644 C38.7078532,13.5820424 39.2004368,13.4028586 39.8348451,13.4028586 L42.0183639,13.4028586 L42.0183639,-10 Z" id="Shape" fill="#006FCF" mask="url(#mask-2)"></path>
    </g>
</svg>