<?xml version="1.0" encoding="UTF-8"?>
<svg width="42px" height="25px" viewBox="0 0 42 25" version="1.1" xmlns="http://www.w3.org/2000/svg" xmlns:xlink="http://www.w3.org/1999/xlink">
    <title>4) Misc UI/Payments/Apple Pay</title>
    <g id="4)-Misc-UI/Payments/Apple-Pay" stroke="none" stroke-width="1" fill="none" fill-rule="evenodd">
        <g id="Apple_Pay_Mark_RGB_041619" fill-rule="nonzero">
            <path d="M38.2387507,0 L3.761294,0 C3.61770019,0 3.47385264,0 3.33051511,0.000778558223 C3.20934975,0.00158070912 3.08846604,0.00283112081 2.96758234,0.00589816836 C2.70394218,0.0125277096 2.4380437,0.0269900184 2.17770221,0.0704949082 C1.91319933,0.114754764 1.66706751,0.186948344 1.42694944,0.300617845 C1.19089127,0.412234783 0.974777386,0.558226246 0.787491376,0.732434547 C0.600124168,0.906642848 0.443107296,1.10725135 0.323086319,1.32696992 C0.20080702,1.55022739 0.123110565,1.7791471 0.0758380326,2.02526587 C0.0287964071,2.26739747 0.0131378564,2.51457791 0.00603302059,2.75944627 C0.00278509564,2.87184177 0.00139204033,2.98423726 0.000602896069,3.09660917 C0,3.23016729 0,3.36363104 0,3.4974251 L0,21.5028344 C0,21.6366285 0,21.7698587 0.000602896069,21.9036763 C0.00139204033,22.0160482 0.00278509564,22.1284437 0.00603302059,22.2408392 C0.0131378564,22.4854929 0.0287964071,22.7326733 0.0758380326,22.9747341 C0.123110565,23.2209473 0.20080702,23.4497726 0.323086319,23.6730537 C0.443107296,23.8927722 0.600124168,24.0936403 0.787491376,24.267589 C0.974777386,24.4420805 1.19089127,24.5880483 1.42694944,24.6993822 C1.66706751,24.8133584 1.91319933,24.8855755 2.17770221,24.9298118 C2.4380437,24.9730336 2.70394218,24.9877554 2.96758234,24.9943849 C3.08846604,24.996933 3.20934975,24.9984429 3.33051511,24.9989619 C3.47385264,25 3.61770019,25 3.761294,25 L38.2387507,25 C38.3820907,25 38.5259408,25 38.6692504,24.9989619 C38.7901367,24.9984429 38.9110229,24.996933 39.0324598,24.9943849 C39.2955417,24.9877554 39.5613894,24.9730336 39.8223678,24.9298118 C40.0865155,24.8855755 40.332698,24.8133584 40.5728415,24.6993822 C40.8091534,24.5880483 41.0246329,24.4420805 41.2123046,24.267589 C41.3993648,24.0936403 41.5563791,23.8927722 41.6767071,23.6730537 C41.799263,23.4497726 41.8768833,23.2209473 41.9239275,22.9747341 C41.970997,22.7326733 41.9862724,22.4854929 41.9934027,22.2408392 C41.9967013,22.1284437 41.9983278,22.0160482 41.9988861,21.9036763 C42,21.7698587 42,21.6366308 42,21.5028344 L42,3.4974251 C42,3.36363104 42,3.23016729 41.9988861,3.09660917 C41.9983278,2.98423726 41.9967013,2.87184177 41.9934027,2.75944627 C41.9862699,2.51457791 41.970997,2.26739747 41.9239275,2.02526587 C41.8768859,1.7791471 41.799263,1.55022739 41.6767071,1.32696992 C41.5563791,1.10725135 41.3993648,0.906642848 41.2123046,0.732434547 C41.0246329,0.558226246 40.8091534,0.412234783 40.5728415,0.300617845 C40.332698,0.186948344 40.0865155,0.114754764 39.8223678,0.0704949082 C39.561392,0.0269900184 39.2955442,0.0125277096 39.0324598,0.00589816836 C38.9110229,0.00283112081 38.7901367,0.00158070912 38.6692504,0.000778558223 C38.5259408,0 38.3820907,0 38.2387507,0 L38.2387507,0 Z" id="XMLID_4_" fill="#000000"></path>
            <path d="M38.1497628,1 L38.5717044,1.00074418 C38.6860067,1.00148836 38.8003116,1.00262788 38.9152475,1.00551157 C39.1151781,1.01048826 39.3490535,1.02046489 39.5670559,1.05646449 C39.7565584,1.087906 39.9154886,1.13571942 40.068012,1.20725351 C40.2185892,1.2777411 40.3565471,1.37011216 40.4770038,1.48092488 C40.5979199,1.59248178 40.6983156,1.71978269 40.7758382,1.86003694 C40.8530554,1.999454 40.9046277,2.14517331 40.9385549,2.32103182 C40.9775308,2.51968077 40.9883097,2.73572488 40.9937901,2.9210484 C40.9968673,3.02565188 40.9983819,3.13025537 40.9989397,3.2373472 C41,3.36685739 41,3.49629781 41,3.62606381 L41,21.374192 C41,21.503958 41,21.6331658 40.9989145,21.7654434 C40.9983819,21.8700236 40.9968698,21.9746271 40.9937648,22.0794167 C40.9883097,22.2644611 40.9775333,22.480389 40.9380778,22.6813867 C40.9046277,22.8548266 40.8530831,23.0005692 40.7754368,23.1406839 C40.6981389,23.2805894 40.5978972,23.4077507 40.4775087,23.51861 C40.3563679,23.6302366 40.2188643,23.7223286 40.0664974,23.7934674 C39.9151125,23.8646526 39.7564549,23.9124219 39.5688204,23.9435355 C39.346403,23.9800467 39.102728,23.9900931 38.9192082,23.9946744 C38.8037447,23.9970698 38.6888365,23.9985093 38.5711289,23.9990232 C38.4308486,24 38.2900684,24 38.1497653,24 L3.85026239,24 C3.84839438,24 3.84657685,24 3.84468359,24 C3.70599612,24 3.56703096,24 3.42581914,23.999 C3.3106838,23.9985093 3.19580089,23.997093 3.08472974,23.9947675 C2.8970195,23.9900931 2.65319308,23.9800699 2.43259063,23.943768 C2.24334307,23.9124195 2.0846855,23.8646526 1.93130634,23.7925371 C1.78037832,23.7220263 1.64297574,23.6300273 1.52178197,23.5181914 C1.4015222,23.4075879 1.30158341,23.2808219 1.22431323,23.1407072 C1.14696733,23.000732 1.09521827,22.8545476 1.06119263,22.6790379 C1.02186082,22.4784355 1.01105663,22.2633681 1.00565706,22.0795795 C1.00257483,21.9743481 1.00128742,21.8691399 1.00055536,21.7645365 L1,21.4557259 L1,21.374192 L1,3.62606381 L1,3.54452983 L1.00053011,3.23637047 C1.00128742,3.13113908 1.00257483,3.02593095 1.00565706,2.92079259 C1.01105663,2.73681789 1.02186082,2.52165749 1.06151827,2.31938067 C1.09524351,2.14545237 1.14696733,1.99926795 1.22471713,1.8585951 C1.30138147,1.71955014 1.40149696,1.59262131 1.52239033,1.48127372 C1.64280156,1.37029821 1.78065348,1.27804342 1.93254327,1.20688142 C2.08428161,1.13569616 2.24323957,1.087906 2.43248966,1.05653425 C2.65054252,1.02044163 2.88457448,1.01048826 3.08500742,1.00548831 C3.19925924,1.00262788 3.31351106,1.00148836 3.42690461,1.00076743 L3.85026239,1 L38.1497628,1" id="XMLID_3_" fill="#FFFFFF"></path>
            <g id="Group" transform="translate(6.000000, 7.000000)" fill="#000000">
                <g id="Path">
                    <path d="M5.4684434,1.56616274 C5.80269811,1.14808255 6.02952123,0.586724057 5.96969811,0.0130825472 C5.48039623,0.0374127358 4.88329717,0.335891509 4.53760613,0.754299528 C4.22721226,1.11260142 3.95248821,1.69746462 4.02410849,2.24705896 C4.573375,2.29470283 5.12213443,1.97251179 5.4684434,1.56616274"></path>
                    <path d="M5.96345755,2.35436792 C5.16579009,2.30685377 4.48757783,2.80708255 4.10665094,2.80708255 C3.72551415,2.80708255 3.14219104,2.37831132 2.5112783,2.38986792 C1.69010613,2.40192925 0.928153302,2.86622642 0.511443396,3.60467689 C-0.345658019,5.08194104 0.285254717,7.27324057 1.11874057,8.47638915 C1.5235,9.071625 2.01130425,9.72702358 2.65406132,9.70348113 C3.26135849,9.67965094 3.49939387,9.31024528 4.23758962,9.31024528 C4.97524292,9.31024528 5.18966274,9.70348113 5.83252358,9.6915684 C6.49918632,9.67964858 6.91596934,9.09603538 7.32072406,8.50021934 C7.78505896,7.8216816 7.97514151,7.16649764 7.9870967,7.13053066 C7.97513915,7.11861792 6.70158255,6.63004953 6.68977358,5.16506368 C6.67775,3.93841038 7.68965802,3.35494575 7.73728302,3.31876179 C7.16584906,2.47360849 6.27299528,2.37831132 5.96345755,2.35436792"></path>
                </g>
                <g transform="translate(9.433962, 0.471698)">
                    <path d="M3.47496462,0.22259434 C5.2086816,0.22259434 6.4159316,1.41766274 6.4159316,3.15758962 C6.4159316,4.90372877 5.18383962,6.10500472 3.43149057,6.10500472 L1.51193396,6.10500472 L1.51193396,9.15764151 L0.125054245,9.15764151 L0.125054245,0.22259434 L3.47496462,0.22259434 L3.47496462,0.22259434 Z M1.5119316,4.94087264 L3.10328066,4.94087264 C4.31076887,4.94087264 4.99799764,4.29078774 4.99799764,3.16379953 C4.99799764,2.0369316 4.31076887,1.39293868 3.10949057,1.39293868 L1.5119316,1.39293868 L1.5119316,4.94087264 L1.5119316,4.94087264 Z" id="Shape"></path>
                    <path d="M6.77829481,7.30628302 C6.77829481,6.16687264 7.65136557,5.46722406 9.19948113,5.38051415 L10.9826439,5.27529245 L10.9826439,4.77378538 C10.9826439,4.04929245 10.4934387,3.61586321 9.67626415,3.61586321 C8.90208726,3.61586321 8.41909198,3.9873066 8.3015684,4.5694316 L7.03842217,4.5694316 C7.11271226,3.39287736 8.11572642,2.52601887 9.72570991,2.52601887 C11.3046392,2.52601887 12.3138632,3.3619434 12.3138632,4.6684434 L12.3138632,9.15764387 L11.0320896,9.15764387 L11.0320896,8.0864316 L11.0012759,8.0864316 C10.6236226,8.81092453 9.8,9.26907547 8.94556132,9.26907547 C7.66999528,9.26907547 6.77829481,8.47650472 6.77829481,7.30628302 Z M10.9826439,6.71806604 L10.9826439,6.20413915 L9.37887028,6.30315094 C8.58008962,6.35892689 8.12814858,6.71185613 8.12814858,7.26913915 C8.12814858,7.83872406 8.5987217,8.21028538 9.31700472,8.21028538 C10.251941,8.21028538 10.9826439,7.56629245 10.9826439,6.71806604 Z" id="Shape"></path>
                    <path d="M13.5239788,11.5539858 L13.5239788,10.4703538 C13.6228703,10.4950778 13.8457358,10.4950778 13.9572877,10.4950778 C14.5764387,10.4950778 14.9108561,10.235066 15.1150896,9.56635142 C15.1150896,9.55392925 15.2328514,9.17006604 15.2328514,9.16385613 L12.8799835,2.64366274 L14.3287288,2.64366274 L15.9759741,7.94406604 L16.0005778,7.94406604 L17.6478255,2.64366274 L19.0595472,2.64366274 L16.6197288,9.4981533 C16.0626863,11.0772028 15.418691,11.5849198 14.0688396,11.5849198 C13.9572901,11.5849198 13.6228726,11.5724976 13.5239788,11.5539858 Z" id="Path"></path>
                </g>
            </g>
        </g>
    </g>
</svg>