<?xml version="1.0" encoding="UTF-8"?>
<svg width="42px" height="25px" viewBox="0 0 42 25" version="1.1" xmlns="http://www.w3.org/2000/svg" xmlns:xlink="http://www.w3.org/1999/xlink">
    <title>4) Misc UI/Payments/Mastercard</title>
    <g id="4)-Misc-UI/Payments/Mastercard" stroke="none" stroke-width="1" fill="none" fill-rule="evenodd">
        <g id="MasterCard-dark">
            <rect id="Rectangle" fill="#000066" x="7.10542736e-15" y="0" width="42" height="25" rx="2"></rect>
            <path d="M23.3869254,12.7022509 C23.3869254,17.1931907 19.7466543,20.8333333 15.2558429,20.8333333 C10.7649031,20.8333333 7.124375,17.1931907 7.124375,12.7022509 C7.124375,8.21143956 10.7649031,4.57091146 15.2558429,4.57091146 C19.7466543,4.57091146 23.3869254,8.21143956 23.3869254,12.7022509" id="1)-Fill-333" fill="#CC0000"></path>
            <path d="M26.1725442,4.57091146 C24.0710584,4.57091146 22.1569252,5.36799577 20.7136153,6.67560984 C20.4199933,6.94211844 20.1459032,7.22995801 19.8928871,7.53643006 L21.5357571,7.53643006 C21.7601178,7.80962065 21.966874,8.09681773 22.1556402,8.39763578 L19.2728755,8.39763578 C19.1004287,8.67403887 18.943659,8.96123594 18.8043652,9.2588415 L22.6238935,9.2588415 C22.7544493,9.53755759 22.8693281,9.82462616 22.968273,10.1196617 L18.4599857,10.1196617 C18.3661808,10.4000483 18.2870249,10.6873739 18.223803,10.9803534 L23.2041986,10.9803534 C23.3234465,11.5354726 23.3869254,12.1114088 23.3869254,12.7022509 C23.3869254,13.6049621 23.2397931,14.4738778 22.968273,15.2853541 L18.4599857,15.2853541 C18.5589305,15.5801326 18.6738094,15.8675867 18.8041082,16.1466883 L22.6238935,16.1466883 C22.4843427,16.4435228 22.3283439,16.7309769 22.1548692,17.0077655 L19.2728755,17.0077655 C19.4608707,17.3076841 19.6680124,17.5952666 19.8928871,17.8680717 L21.5352431,17.8680717 C21.282741,18.1748008 21.0083939,18.4626404 20.7138723,18.729149 C22.1570537,20.036763 24.0710584,20.8333333 26.1725442,20.8333333 C30.6632271,20.8333333 34.3036267,17.1931907 34.3036267,12.7022509 C34.3036267,8.21182506 30.6632271,4.57091146 26.1725442,4.57091146" id="1)-Fill-334" fill="#FF9900"></path>
            <path d="M13.3570013,13.5924976 C13.2643529,13.5819606 13.22349,13.5786196 13.1598825,13.5786196 C12.6595043,13.5786196 12.4064882,13.7502953 12.4064882,14.0894063 C12.4064882,14.2982185 12.5299765,14.4309588 12.7227262,14.4309588 C13.0823972,14.4309588 13.3415813,14.0886353 13.3570013,13.5924976 L13.3570013,13.5924976 Z M13.9991148,15.0870789 L13.2674369,15.0870789 L13.2842704,14.7394869 C13.0611947,15.0139625 12.7634606,15.1450323 12.3590717,15.1450323 C11.8807954,15.1450323 11.5527354,14.7716118 11.5527354,14.2289571 C11.5527354,13.4120838 12.1231461,12.935735 13.1024431,12.935735 C13.2028015,12.935735 13.3310443,12.944987 13.4623711,12.9615635 C13.4896131,12.8507967 13.496809,12.8037657 13.496809,12.7440133 C13.496809,12.5219657 13.3431233,12.4386978 12.9307674,12.4386978 C12.4988795,12.4343288 12.1426781,12.5418831 11.9963168,12.5899421 C12.0055688,12.5341731 12.1187771,11.8355197 12.1187771,11.8355197 C12.5585034,11.7062489 12.848656,11.6579329 13.175174,11.6579329 C13.9333229,11.6579329 14.3348848,11.9982004 14.3339853,12.6414705 C14.3355273,12.8140457 14.3068718,13.0261989 14.2625394,13.3060715 C14.1859535,13.7918008 14.0214738,14.8335487 13.9991148,15.0870789 L13.9991148,15.0870789 Z" id="1)-Fill-336" fill="#000066"></path>
            <polyline id="1)-Fill-337" fill="#000066" points="11.1832985 15.0870789 10.3003763 15.0870789 10.8064085 11.9167316 9.67702371 15.0870789 9.07551611 15.0870789 9.00111472 11.9344645 8.4696395 15.0870789 7.64338573 15.0870789 8.33355821 10.9626205 9.60300782 10.9626205 9.67972221 13.2712481 10.4541906 10.9626205 11.866018 10.9626205 11.1832985 15.0870789"></polyline>
            <path d="M27.2632506,13.5924976 C27.1706023,13.5819606 27.1302533,13.5786196 27.0667744,13.5786196 C26.5660107,13.5786196 26.3132515,13.7502953 26.3132515,14.0894063 C26.3132515,14.2982185 26.4362259,14.4309588 26.6294896,14.4309588 C26.9889035,14.4309588 27.2482161,14.0886353 27.2632506,13.5924976 L27.2632506,13.5924976 Z M27.9057497,15.0870789 L27.1743288,15.0870789 L27.1909052,14.7394869 C26.9678296,15.0139625 26.670224,15.1450323 26.2660921,15.1450323 C25.7871733,15.1450323 25.4594988,14.7716118 25.4594988,14.2289571 C25.4594988,13.4120838 26.0301665,12.935735 27.0092065,12.935735 C27.1094364,12.935735 27.2374222,12.944987 27.3688775,12.9615635 C27.3962479,12.8507967 27.4033154,12.8037657 27.4033154,12.7440133 C27.4033154,12.5219657 27.2496296,12.4386978 26.8372738,12.4386978 C26.4053859,12.4343288 26.0493129,12.5418831 25.9024376,12.5899421 C25.9122036,12.5341731 26.025669,11.8355197 26.025669,11.8355197 C26.4651383,11.7062489 26.7555479,11.6579329 27.0815519,11.6579329 C27.8402148,11.6579329 28.2412627,11.9982004 28.2404917,12.6414705 C28.2420337,12.8140457 28.2136352,13.0261989 28.1690458,13.3060715 C28.0927169,13.7918008 27.9278516,14.8335487 27.9057497,15.0870789 L27.9057497,15.0870789 Z" id="1)-Fill-338" fill="#000066"></path>
            <path d="M17.922214,15.0360644 C17.6805058,15.1121363 17.4922536,15.1450323 17.2879389,15.1450323 C16.8367761,15.1450323 16.590442,14.8857197 16.590442,14.4080859 C16.5841455,14.2597971 16.6553344,13.8698002 16.7113603,13.5141127 C16.7625032,13.2007017 17.0942897,11.2251456 17.0942897,11.2251456 L17.9715579,11.2251456 L17.8691436,11.7328483 L18.3992053,11.7328483 L18.279572,12.5390561 L17.7477112,12.5390561 C17.6458109,13.1768007 17.5004776,13.9714435 17.4988071,14.0768134 C17.4988071,14.2497741 17.59107,14.325332 17.8011672,14.325332 C17.9017825,14.325332 17.9796534,14.315052 18.0391488,14.293721 L17.922214,15.0360644" id="1)-Fill-339" fill="#000066"></path>
            <path d="M20.612486,15.008951 C20.3110254,15.1010853 20.0204874,15.1460603 19.7122163,15.1450323 C18.7298353,15.1437473 18.2177635,14.631033 18.2177635,13.648652 C18.2177635,12.5021767 18.8691291,11.6579329 19.7535933,11.6579329 C20.4769187,11.6579329 20.9391325,12.1305552 20.9391325,12.8714851 C20.9391325,13.1178193 20.9075216,13.3578569 20.8308072,13.6965824 L19.0834668,13.6965824 C19.0244853,14.1832112 19.3357119,14.3858554 19.8464986,14.3858554 C20.1601667,14.3858554 20.4436372,14.3210915 20.7585903,14.1749872 L20.612486,15.008951 L20.612486,15.008951 Z M20.1193037,13.0205449 C20.1243152,12.9505125 20.2122091,12.4217358 19.7106743,12.4217358 C19.4315727,12.4217358 19.2314985,12.6347885 19.1504152,13.0205449 L20.1193037,13.0205449 L20.1193037,13.0205449 Z" id="1)-Fill-340" fill="#000066"></path>
            <path d="M14.528534,12.7933573 C14.528534,13.2172781 14.7341337,13.5098722 15.200588,13.7297354 C15.557946,13.8979416 15.6135864,13.947671 15.6135864,14.0999433 C15.6135864,14.3087555 15.4557886,14.4035884 15.1066547,14.4035884 C14.8431015,14.4035884 14.5981809,14.3622114 14.3156098,14.2708481 C14.3156098,14.2708481 14.1998315,15.010493 14.194306,15.0458304 C14.3948942,15.0892634 14.5737659,15.1297408 15.1129511,15.1450323 C16.0443178,15.1450323 16.4745351,14.7903728 16.4745351,14.0238714 C16.4745351,13.5630711 16.2946354,13.292579 15.8523391,13.0890353 C15.4823881,12.9192871 15.4395977,12.8812511 15.4395977,12.7247384 C15.4395977,12.5434251 15.5864729,12.4507768 15.871614,12.4507768 C16.0449603,12.4507768 16.2815284,12.4692807 16.5060176,12.5010202 L16.6315619,11.7230823 C16.4030892,11.6867169 16.0563968,11.6579329 15.854652,11.6579329 C14.8672595,11.6579329 14.5253215,12.1736027 14.528534,12.7933573" id="1)-Fill-341" fill="#000066"></path>
            <path d="M24.9057931,11.7464693 C25.1509708,11.7464693 25.3799574,11.8102052 25.6946535,11.9691595 L25.8392157,11.0740298 C25.7094309,11.0231439 25.2544131,10.7248958 24.8689137,10.7248958 C24.2783286,10.7248958 23.7784643,11.0183894 23.4275313,11.5016772 C22.9150741,11.3320574 22.7042059,11.6748949 22.4461783,12.0167044 L22.2168061,12.0701603 C22.2341536,11.957723 22.2499591,11.8460567 22.2449476,11.7328483 L21.4338568,11.7328483 C21.3233469,12.7712553 21.1271277,13.8226407 20.9735705,14.8614332 L20.93335,15.0870789 L21.8165292,15.0870789 C21.9639185,14.1292413 22.0444879,13.5161687 22.0935748,13.1008573 L22.4261323,12.9165886 C22.4761187,12.7314204 22.631218,12.6692264 22.9432155,12.6768079 C22.9024811,12.8955146 22.8803791,13.1259148 22.8803791,13.3642819 C22.8803791,14.4617988 23.4732772,15.1450323 24.4231478,15.1450323 C24.66794,15.1450323 24.8781657,15.1129073 25.2036557,15.0242425 L25.3583695,14.0843948 C25.0656469,14.2281861 24.8259947,14.2959055 24.6087016,14.2959055 C24.0954733,14.2959055 23.7848893,13.9169596 23.7848893,13.291037 C23.7848893,12.3826719 24.2464606,11.7464693 24.9057931,11.7464693" id="1)-Fill-342" fill="#000066"></path>
            <path d="M32.379599,10.9626205 L32.1833798,12.1541992 C31.9424427,11.8366762 31.6831301,11.6066615 31.3408066,11.6066615 C30.8954262,11.6066615 30.4900093,11.944359 30.2245287,12.4416533 C29.8548348,12.3649389 29.4728048,12.2345116 29.4728048,12.2345116 L29.4725478,12.2377241 C29.5019743,11.959779 29.5144388,11.7906732 29.5114833,11.7328483 L28.700521,11.7328483 C28.5903967,12.7712553 28.3939204,13.8226407 28.2404917,14.8614332 L28.1998857,15.0870789 L29.0833219,15.0870789 C29.2025697,14.312996 29.2936761,13.669469 29.3608815,13.1598387 C29.6628561,12.8869051 29.8139718,12.649566 30.1183879,12.664986 C29.9833346,12.9916325 29.9045642,13.3676229 29.9045642,13.7533793 C29.9045642,14.5915836 30.3283566,15.1450323 30.9703416,15.1450323 C31.2939041,15.1450323 31.5421658,15.0333659 31.7842594,14.7748243 L31.7426255,15.0868219 L32.5778742,15.0868219 L33.2503137,10.9626205 L32.379599,10.9626205 L32.379599,10.9626205 Z M31.2756572,14.312225 C30.9752246,14.312225 30.8230808,14.0894063 30.8230808,13.650965 C30.8230808,12.9916325 31.1074509,12.5242787 31.5077278,12.5242787 C31.8111159,12.5242787 31.9755956,12.7550643 31.9755956,13.1811697 C31.9755956,13.8461562 31.6864711,14.312225 31.2756572,14.312225 L31.2756572,14.312225 Z" id="1)-Fill-343" fill="#000066"></path>
            <polyline id="1)-Fill-344" fill="#FFFFFF" points="11.4372141 14.8422867 10.5545489 14.8422867 11.0604527 11.6719394 9.93132484 14.8422867 9.32956023 14.8422867 9.25528734 11.6903149 8.72368363 14.8422867 7.89742985 14.8422867 8.58760233 10.7182138 9.85705195 10.7182138 9.89251789 13.2712481 10.7490976 10.7182138 12.1200621 10.7182138 11.4372141 14.8422867"></polyline>
            <path d="M13.6110454,13.3482194 C13.5185255,13.3374255 13.4776626,13.33447 13.4140552,13.33447 C12.9136769,13.33447 12.6605323,13.5058887 12.6605323,13.8447427 C12.6605323,14.0532979 12.7841491,14.1868092 12.9770273,14.1868092 C13.3365698,14.1868092 13.5957539,13.8444857 13.6110454,13.3482194 L13.6110454,13.3482194 Z M14.2530304,14.8422867 L13.521738,14.8422867 L13.538443,14.4949517 C13.3153673,14.7692988 13.0176333,14.9004971 12.6132444,14.9004971 C12.1348396,14.9004971 11.8069081,14.5265627 11.8069081,13.9840365 C11.8069081,13.1670347 12.3774472,12.6913284 13.3567443,12.6913284 C13.4568456,12.6913284 13.5850884,12.7004519 13.7165437,12.7174139 C13.7437857,12.60639 13.7509817,12.5592306 13.7509817,12.4992212 C13.7509817,12.277302 13.5972959,12.1946766 13.18494,12.1946766 C12.7529237,12.1895367 12.3968507,12.297091 12.2503609,12.3450214 C12.2597414,12.2895095 12.3728212,11.590856 12.3728212,11.590856 C12.8126761,11.4618422 13.1028286,11.4131408 13.4293466,11.4131408 C14.187367,11.4131408 14.5888004,11.7537938 14.5881579,12.3968068 C14.5895714,12.5691251 14.561173,12.7823063 14.516712,13.0614079 C14.4399976,13.5467516 14.2755179,14.5891421 14.2530304,14.8422867 L14.2530304,14.8422867 Z" id="1)-Fill-345" fill="#FFFFFF"></path>
            <path d="M26.0931314,10.8292377 L25.9485691,11.7242388 C25.633359,11.5657986 25.4050149,11.5016772 25.1600942,11.5016772 C24.5010187,11.5016772 24.0386764,12.1386507 24.0386764,13.0471444 C24.0386764,13.673067 24.3493889,14.0512419 24.8626172,14.0512419 C25.0800389,14.0512419 25.320205,13.9840365 25.6122851,13.8397312 L25.4571858,14.7795788 C25.1322098,14.8681152 24.9218556,14.9004971 24.677192,14.9004971 C23.7266789,14.9004971 23.1346802,14.2171351 23.1346802,13.1198753 C23.1346802,11.6454685 23.9530955,10.6150285 25.1229578,10.6150285 C25.5084572,10.6150285 25.9637321,10.7783517 26.0931314,10.8292377" id="1)-Fill-346" fill="#FFFFFF"></path>
            <path d="M27.5171662,13.3482194 C27.4251604,13.3374255 27.3841689,13.33447 27.32069,13.33447 C26.8205688,13.33447 26.5672957,13.5058887 26.5672957,13.8447427 C26.5672957,14.0532979 26.690784,14.1868092 26.8835337,14.1868092 C27.2429477,14.1868092 27.5023888,13.8444857 27.5171662,13.3482194 L27.5171662,13.3482194 Z M28.1596653,14.8422867 L27.4283729,14.8422867 L27.4449494,14.4949517 C27.2218737,14.7692988 26.9241396,14.9004971 26.5201362,14.9004971 C26.0412174,14.9004971 25.7136714,14.5265627 25.7136714,13.9840365 C25.7136714,13.1670347 26.2836966,12.6913284 27.2632506,12.6913284 C27.363352,12.6913284 27.4913378,12.7004519 27.6226646,12.7174139 C27.6500351,12.60639 27.657231,12.5592306 27.657231,12.4992212 C27.657231,12.277302 27.5039308,12.1946766 27.0913179,12.1946766 C26.659687,12.1895367 26.3037425,12.297091 26.1569958,12.3450214 C26.1662478,12.2895095 26.2794561,11.590856 26.2794561,11.590856 C26.7193109,11.4618422 27.0092065,11.4131408 27.3357245,11.4131408 C28.0937449,11.4131408 28.4955638,11.7537938 28.4945358,12.3968068 C28.4963348,12.5691251 28.4676793,12.7823063 28.4232184,13.0614079 C28.346761,13.5467516 28.1822813,14.5891421 28.1596653,14.8422867 L28.1596653,14.8422867 Z" id="1)-Fill-347" fill="#FFFFFF"></path>
            <path d="M18.1761296,14.7914008 C17.9346785,14.8674727 17.7461692,14.9004971 17.5421115,14.9004971 C17.0908202,14.9004971 16.8443576,14.641056 16.8443576,14.1639362 C16.8381896,14.0151334 16.909507,13.625779 16.9656614,13.2697061 C17.0164188,12.956038 17.3483338,10.9807389 17.3483338,10.9807389 L18.225859,10.9807389 L18.1231877,11.4883132 L18.573708,11.4883132 L18.4536892,12.294264 L18.0017554,12.294264 C17.899855,12.9326511 17.7545217,13.7267799 17.7527227,13.8321497 C17.7527227,14.0056245 17.8453711,14.0806684 18.0552113,14.0806684 C18.1558266,14.0806684 18.233569,14.0707739 18.2933214,14.0489289 L18.1761296,14.7914008" id="1)-Fill-348" fill="#FFFFFF"></path>
            <path d="M20.8669156,14.7648013 C20.5653266,14.8571927 20.274146,14.9007541 19.9662605,14.9004971 C18.9837509,14.8998546 18.4720647,14.3864979 18.4720647,13.4042454 C18.4720647,12.2573846 19.1233017,11.4131408 20.0071234,11.4131408 C20.7312198,11.4131408 21.1931766,11.8857631 21.1931766,12.6275925 C21.1931766,12.8734126 21.1610517,13.1133218 21.0852368,13.4521758 L19.3376394,13.4521758 C19.278401,13.9388046 19.590013,14.1418343 20.1002858,14.1418343 C20.4142108,14.1418343 20.6975529,14.0768134 21.0128914,13.9303236 L20.8669156,14.7648013 L20.8669156,14.7648013 Z M20.3736048,12.7757528 C20.3783593,12.7055919 20.4666387,12.1770722 19.9652325,12.1770722 C19.6858739,12.1770722 19.4857997,12.3905104 19.4044593,12.7757528 L20.3736048,12.7757528 L20.3736048,12.7757528 Z" id="1)-Fill-349" fill="#FFFFFF"></path>
            <path d="M14.7824496,12.5485651 C14.7824496,12.973257 14.9883063,13.2652086 15.4548891,13.4853287 C15.8122471,13.6534065 15.8676305,13.7031359 15.8676305,13.8555367 C15.8676305,14.0646059 15.7099613,14.1589247 15.3605703,14.1589247 C15.0972742,14.1589247 14.852225,14.1180618 14.5695255,14.0269554 C14.5695255,14.0269554 14.4538756,14.7660863 14.4484786,14.8009098 C14.6489383,14.8448567 14.8279386,14.8849487 15.3668668,14.9004971 C16.2984904,14.9004971 16.7287078,14.5459662 16.7287078,13.7794648 C16.7287078,13.3184075 16.548551,13.0480439 16.1063832,12.8450142 C15.7363037,12.6747519 15.6937703,12.6371015 15.6937703,12.4803317 C15.6937703,12.2990185 15.8405171,12.2057276 16.1259151,12.2057276 C16.2988759,12.2057276 16.535701,12.2250026 16.7600617,12.2566136 L16.8857345,11.4788042 C16.6571334,11.4426958 16.3106979,11.4131408 16.1088247,11.4131408 C15.1211751,11.4131408 14.7794941,11.928939 14.7824496,12.5485651" id="1)-Fill-350" fill="#FFFFFF"></path>
            <path d="M32.8319184,14.8422867 L31.9969266,14.8422867 L32.0383035,14.5301607 C31.7960814,14.7888308 31.5479483,14.9004971 31.2243857,14.9004971 C30.5829147,14.9004971 30.1584798,14.347691 30.1584798,13.5085872 C30.1584798,12.3929519 30.8165274,11.4525902 31.5948507,11.4525902 C31.9371742,11.4525902 32.1963583,11.592398 32.4378094,11.9100496 L32.6336432,10.7182138 L33.5042294,10.7182138 L32.8319184,14.8422867 L32.8319184,14.8422867 Z M31.5295728,14.0673044 C31.9409007,14.0673044 32.2295113,13.6014926 32.2295113,12.9371485 C32.2295113,12.5109147 32.06516,12.279358 31.761772,12.279358 C31.3613665,12.279358 31.077125,12.7468403 31.077125,13.4064299 C31.077125,13.8453852 31.2293972,14.0673044 31.5295728,14.0673044 L31.5295728,14.0673044 Z" id="1)-Fill-351" fill="#FFFFFF"></path>
            <path d="M28.9548221,11.4883132 C28.8444408,12.5264632 28.6480931,13.5778486 28.4945358,14.6167696 L28.4543154,14.8422867 L29.3372375,14.8422867 C29.6530901,12.7911728 29.7290335,12.3908959 30.2245287,12.4408823 C30.3032991,12.0210734 30.4501744,11.6534355 30.5595277,11.4681387 C30.1898338,11.3910388 29.9833346,11.5999795 29.712714,11.9970439 C29.734302,11.8252397 29.7732374,11.6585754 29.7659129,11.4883132 L28.9548221,11.4883132" id="1)-Fill-352" fill="#FFFFFF"></path>
            <path d="M21.6882864,11.4883132 C21.5773911,12.5264632 21.3807864,13.5778486 21.2274861,14.6167696 L21.1873941,14.8422867 L22.0705733,14.8422867 C22.3865544,12.7911728 22.4622407,12.3908959 22.956965,12.4408823 C23.0362494,12.0210734 23.1833817,11.6534355 23.292478,11.4681387 C22.9231696,11.3910388 22.7162849,11.5999795 22.4461783,11.9970439 C22.4675092,11.8252397 22.5067017,11.6585754 22.4989917,11.4883132 L21.6882864,11.4883132" id="1)-Fill-353" fill="#FFFFFF"></path>
        </g>
    </g>
</svg>