<?xml version="1.0" encoding="UTF-8"?>
<svg width="42px" height="25px" viewBox="0 0 42 25" version="1.1" xmlns="http://www.w3.org/2000/svg" xmlns:xlink="http://www.w3.org/1999/xlink">
    <title>4) Misc UI/Payments/Visa</title>
    <g id="4)-Misc-UI/Payments/Visa" stroke="none" stroke-width="1" fill="none" fill-rule="evenodd">
        <g id="Visa-dark">
            <rect id="Rectangle" fill="#1A1F71" x="0" y="0" width="42" height="25" rx="2"></rect>
            <path d="M20.8550048,7.17565705 L18.8492021,16.846578 L16.4250032,16.846578 L18.4308059,7.17565705 L20.8550048,7.17565705 Z M31.0529279,13.4201539 L32.3292303,9.78872237 L33.0634704,13.4201539 L31.0529279,13.4201539 Z M33.7572067,16.846578 L36,16.846578 L34.043319,7.17565705 L31.9733134,7.17565705 C31.50795,7.17565705 31.1158382,7.45626362 30.940896,7.88451105 L27.3058903,16.846578 L29.8503081,16.846578 L30.3553136,15.4021879 L33.4659236,15.4021879 L33.7572067,16.846578 Z M27.4304181,13.6887535 C27.4420522,11.137057 24.0104276,10.9987548 24.0349884,9.85676168 C24.0414518,9.5081158 24.3616046,9.13945835 25.0622352,9.04607106 C25.4099651,8.99937742 26.3678382,8.96424601 27.4528245,9.47787611 L27.878115,7.42824743 C27.2946871,7.20945435 26.5436422,7 25.6111917,7 C23.2150008,7 21.5284891,8.31498199 21.5147006,10.1960688 C21.4987576,11.5884289 22.7177513,12.3648775 23.637275,12.828701 C24.5813596,13.3031974 24.8967726,13.606039 24.8933255,14.0307289 C24.8877239,14.6804376 24.1401261,14.9632677 23.4438045,14.9766087 C22.2248108,14.9961756 21.5177168,14.6364121 20.9528173,14.3651443 L20.5137383,16.4854805 C21.0790687,16.7536354 22.1265674,16.9857696 23.2106919,17 C25.7568332,17 27.4226621,15.6988038 27.4304181,13.6887535 L27.4304181,13.6887535 Z M17.3906324,7.17565705 L13.4639128,16.846578 L10.9005357,16.846578 L8.96970829,9.13011962 C8.85035118,8.65384444 8.74909154,8.4799662 8.39231289,8.27807177 C7.80888499,7.95255036 6.84799563,7.64704051 6,7.45670832 L6.05946311,7.17565705 L10.1831004,7.17565705 C10.7092197,7.17565705 11.1819083,7.53808867 11.3008345,8.16244942 L12.3220487,13.759461 L14.8440602,7.17565705 L17.3906324,7.17565705 L17.3906324,7.17565705 Z" id="1)-Fill-21" fill="#FFFFFF"></path>
        </g>
    </g>
</svg>